<svg width="237" height="10" viewBox="0 0 237 10" fill="none" xmlns="http://www.w3.org/2000/svg">
<rect x="137" width="6.25" height="5" fill="#333333"/>
<rect x="37" width="6.25" height="5" fill="#333333"/>
<rect width="6.25" height="5" fill="#333333"/>
<rect x="149.5" width="6.25" height="5" fill="#333333"/>
<rect x="49.5" width="6.25" height="5" fill="#333333"/>
<rect x="12.5" width="6.25" height="5" fill="#333333"/>
<rect x="162" width="6.25" height="5" fill="#333333"/>
<rect x="62" width="6.25" height="5" fill="#333333"/>
<rect x="25" width="6.25" height="5" fill="#333333"/>
<rect x="174.5" width="6.25" height="5" fill="#333333"/>
<rect x="74.5" width="6.25" height="5" fill="#333333"/>
<rect x="187" width="6.25" height="5" fill="#333333"/>
<rect x="87" width="6.25" height="5" fill="#333333"/>
<rect x="199.5" width="6.25" height="5" fill="#333333"/>
<rect x="99.5" width="6.25" height="5" fill="#333333"/>
<rect x="212" width="6.25" height="5" fill="#333333"/>
<rect x="112" width="6.25" height="5" fill="#333333"/>
<rect x="224.5" width="6.25" height="5" fill="#333333"/>
<rect x="124.5" width="6.25" height="5" fill="#333333"/>
<rect x="143.25" y="5" width="6.25" height="5" fill="#333333"/>
<rect x="43.25" y="5" width="6.25" height="5" fill="#333333"/>
<rect x="6.25" y="5" width="6.25" height="5" fill="#333333"/>
<rect x="155.75" y="5" width="6.25" height="5" fill="#333333"/>
<rect x="55.75" y="5" width="6.25" height="5" fill="#333333"/>
<rect x="18.75" y="5" width="6.25" height="5" fill="#333333"/>
<rect x="168.25" y="5" width="6.25" height="5" fill="#333333"/>
<rect x="68.25" y="5" width="6.25" height="5" fill="#333333"/>
<rect x="31.25" y="5" width="6.25" height="5" fill="#333333"/>
<rect x="180.75" y="5" width="6.25" height="5" fill="#333333"/>
<rect x="80.75" y="5" width="6.25" height="5" fill="#333333"/>
<rect x="193.25" y="5" width="6.25" height="5" fill="#333333"/>
<rect x="93.25" y="5" width="6.25" height="5" fill="#333333"/>
<rect x="205.75" y="5" width="6.25" height="5" fill="#333333"/>
<rect x="105.75" y="5" width="6.25" height="5" fill="#333333"/>
<rect x="218.25" y="5" width="6.25" height="5" fill="#333333"/>
<rect x="118.25" y="5" width="6.25" height="5" fill="#333333"/>
<rect x="230.75" y="5" width="6.25" height="5" fill="#333333"/>
<rect x="130.75" y="5" width="6.25" height="5" fill="#333333"/>
</svg>
