<svg width="50" height="50" viewBox="0 0 50 50" fill="none" xmlns="http://www.w3.org/2000/svg">
<path d="M25 46.875C19.1984 46.875 13.6344 44.5703 9.53204 40.468C5.42968 36.3656 3.125 30.8016 3.125 25C3.125 19.1984 5.42968 13.6344 9.53204 9.53204C13.6344 5.42968 19.1984 3.125 25 3.125C30.8016 3.125 36.3656 5.42968 40.468 9.53204C44.5703 13.6344 46.875 19.1984 46.875 25C46.875 30.8016 44.5703 36.3656 40.468 40.468C36.3656 44.5703 30.8016 46.875 25 46.875ZM25 50C31.6304 50 37.9893 47.3661 42.6777 42.6777C47.3661 37.9893 50 31.6304 50 25C50 18.3696 47.3661 12.0107 42.6777 7.32233C37.9893 2.63392 31.6304 0 25 0C18.3696 0 12.0107 2.63392 7.32233 7.32233C2.63392 12.0107 0 18.3696 0 25C0 31.6304 2.63392 37.9893 7.32233 42.6777C12.0107 47.3661 18.3696 50 25 50Z" fill="#9E0030"/>
<path d="M34.2816 15.5313C34.2593 15.5528 34.2384 15.5758 34.2191 15.6L23.366 29.4281L16.8253 22.8844C16.381 22.4704 15.7934 22.245 15.1862 22.2557C14.579 22.2664 13.9997 22.5124 13.5703 22.9418C13.1408 23.3712 12.8949 23.9506 12.8842 24.5578C12.8734 25.165 13.0988 25.7526 13.5128 26.1969L21.7816 34.4688C22.0043 34.6911 22.2696 34.8663 22.5615 34.9839C22.8535 35.1016 23.1661 35.1592 23.4808 35.1533C23.7955 35.1475 24.1057 35.0783 24.3931 34.95C24.6805 34.8216 24.9391 34.6367 25.1535 34.4063L37.6285 18.8125C38.0532 18.3667 38.2855 17.7716 38.275 17.1559C38.2645 16.5401 38.0121 15.9533 37.5724 15.5222C37.1326 15.0911 36.5409 14.8504 35.9251 14.8521C35.3093 14.8538 34.7189 15.0977 34.2816 15.5313Z" fill="#9E0030"/>
</svg>
