<svg width="65" height="95" viewBox="0 0 65 95" fill="none" xmlns="http://www.w3.org/2000/svg">
<path d="M33.1934 54.7114C31.7201 56.1364 30.0301 57.3886 28.1668 58.2955V86.3636L19.5001 95L10.8335 86.3636L19.5001 78.9796L13.0001 73.4091L19.5001 67.8386L10.8335 60.4545V58.2955C7.57521 56.7296 4.82853 54.2764 2.91133 51.2196C0.994134 48.1628 -0.0151927 44.6274 0.000172857 41.0227C0.000172857 30.2273 8.66682 21.5909 19.5001 21.5909H19.9768C19.8901 21.8932 19.6735 22.1091 19.5001 22.3682C18.3301 25.0023 17.6801 27.7659 17.4635 30.5727C15.9997 31.056 14.7564 32.0426 13.9561 33.3561C13.1558 34.6696 12.8509 36.2241 13.096 37.7411C13.341 39.2582 14.12 40.6388 15.2935 41.6357C16.4669 42.6326 17.9581 43.1807 19.5001 43.1818H19.9335C22.7068 48.5795 27.4734 52.6818 33.1934 54.7114ZM47.6667 21.5909C47.6667 18.8705 47.2334 16.1932 46.4534 13.7318C52.26 15.3727 57.2434 19.6477 59.4967 25.7364C62.0967 32.9045 60.19 40.5477 55.25 45.7295L65 72.0273L59.7133 83.125L48.62 77.9432L54.1667 68.0546L46.1934 65.0318L50.3967 57.6045L39.6934 53.5886L39.0001 51.6023C35.3976 51.2193 31.9746 49.8394 29.1182 47.6187C26.2618 45.3981 24.086 42.4252 22.8368 39.0364C21.0769 34.1914 21.3156 28.849 23.5004 24.179C25.6852 19.509 29.6381 15.8921 34.4934 14.1205C35.2734 13.8614 36.0967 13.6886 36.8334 13.5159C35.3926 10.7461 33.2163 8.42366 30.5419 6.80176C27.8675 5.17987 24.7975 4.32079 21.6668 4.31818C12.0901 4.31818 4.33349 12.0477 4.33349 21.5909C4.33349 21.9795 4.3335 22.325 4.4635 22.7136C3.0335 23.8795 1.7335 25.1318 0.650172 26.5568C0.260173 24.9591 0.000172857 23.3182 0.000172857 21.5909C0.000172857 9.67273 9.70681 0 21.6668 0C33.6267 0 43.3334 9.67273 43.3334 21.5909C43.3334 26.6 41.6001 31.1341 38.7401 34.8046C48.0134 34.0273 47.6667 21.5909 47.6667 21.5909ZM33.8434 30.6591C34.1034 31.3932 34.4934 31.9977 34.9267 32.5591C37.3534 29.7091 38.8701 26.0818 39.0001 22.0659C38.5234 22.1523 38.1334 22.2386 37.7001 22.3682C34.3201 23.6205 32.5001 27.3341 33.8434 30.6591Z" fill="#333333"/>
</svg>
