<svg width="88" height="84" viewBox="0 0 88 84" fill="none" xmlns="http://www.w3.org/2000/svg">
<path d="M60.6374 56.4811C60.639 56.4794 60.6383 56.4767 60.6362 56.4757C58.9679 55.7584 57.7523 54.4762 56.9209 53.2858C55.9998 51.967 53.8034 50.3545 53.8034 48.7459C53.8034 46.2893 55.11 49.5862 56.5659 42.9282C56.9769 41.0486 58.3828 39.3289 59.3426 37.6614C60.3443 35.9213 61.2315 32.8335 60.8591 27.415C60.8408 27.1494 60.6184 26.9375 60.3522 26.9375C60.0248 26.9375 59.7789 26.6392 59.8441 26.3183C60.3603 23.7736 62.1148 14.0853 59.7133 10.4796C56.9379 6.31965 55.8343 3.54633 49.7317 1.56088C43.6291 -0.424573 45.8527 -0.028884 41.4153 0.174213C39.4454 0.264308 37.6221 0.820904 36.2028 1.53374C34.0902 2.59486 31.0067 3.99407 29.3995 5.72787C28.2893 6.91844 26.4413 12.4651 26.4413 13.8518C26.4413 15.115 27.2082 22.9696 28.0433 25.8534C28.1535 26.2338 27.9687 26.6616 27.5963 26.7967C27.3482 26.8868 27.1743 27.1206 27.1559 27.384C26.7751 32.8263 27.6642 35.9245 28.6687 37.6686C29.6291 39.3362 31.0356 41.056 31.4467 42.9359C32.9025 49.593 34.2091 46.2964 34.2091 48.7529C34.2091 50.3615 32.0127 51.974 31.0916 53.2928C30.2594 54.4842 29.0424 55.7677 27.3718 56.4846C23.6757 58.0674 3.15735 66.5905 1.48885 68.3763C0.481296 69.4526 0.149771 74.9066 0.045383 79.0706C-0.0231541 81.8044 2.20376 84 4.9385 84H83.0632C85.7971 84 88.0236 81.8059 87.9563 79.0729C87.8539 74.9094 87.5247 69.4549 86.5171 68.3763C84.8524 66.5911 64.3446 58.0733 60.638 56.4863C60.6358 56.4854 60.6358 56.4828 60.6374 56.4811Z" fill="#333333"/>
</svg>
