<svg width="72" height="89" viewBox="0 0 72 89" fill="none" xmlns="http://www.w3.org/2000/svg">
<path d="M61.1875 53.4C62.5024 53.4 63.8043 53.659 65.0191 54.1622C66.2339 54.6653 67.3377 55.4028 68.2674 56.3326C69.1972 57.2623 69.9347 58.3661 70.4378 59.5809C70.941 60.7957 71.2 62.0976 71.2 63.4125V67.4398C71.2006 69.8452 70.6812 72.2224 69.6773 74.4083C68.6734 76.5943 67.2088 78.5374 65.3838 80.1044C58.4151 86.0852 48.4472 89 35.5867 89C22.7262 89 12.767 86.0808 5.8117 80.1C3.98926 78.534 2.5265 76.5928 1.52346 74.4094C0.520424 72.2259 0.000756667 69.8515 0 67.4486V63.4081C0.00117987 60.7533 1.05659 58.2078 2.93417 56.331C4.81175 54.4543 7.35779 53.4 10.0125 53.4H61.1875ZM35.1327 0.0355995L35.5867 0C36.3932 3.40109e-05 37.1724 0.29211 37.7802 0.822213C38.388 1.35232 38.7833 2.08459 38.893 2.8836L38.9241 3.3375V6.675H54.4991C57.1546 6.675 59.7013 7.72989 61.5791 9.60759C63.4568 11.4853 64.5116 14.032 64.5116 16.6875V36.7347C64.5116 39.3902 63.4568 41.9369 61.5791 43.8147C59.7013 45.6924 57.1546 46.7472 54.4991 46.7472H16.6742C14.0187 46.7472 11.472 45.6924 9.59424 43.8147C7.71654 41.9369 6.66165 39.3902 6.66165 36.7347V16.6875C6.66165 14.032 7.71654 11.4853 9.59424 9.60759C11.472 7.72989 14.0187 6.675 16.6742 6.675H32.2491V3.34195C32.2492 2.53544 32.5413 1.75623 33.0714 1.14841C33.6015 0.54059 34.3337 0.145285 35.1327 0.0355995L35.5867 0L35.1327 0.0311499V0.0355995ZM25.5742 20.025C24.0989 20.025 22.684 20.611 21.6409 21.6542C20.5977 22.6974 20.0117 24.1122 20.0117 25.5875C20.0117 27.0628 20.5977 28.4776 21.6409 29.5208C22.684 30.564 24.0989 31.15 25.5742 31.15C27.0494 31.15 28.4643 30.564 29.5074 29.5208C30.5506 28.4776 31.1367 27.0628 31.1367 25.5875C31.1367 24.1122 30.5506 22.6974 29.5074 21.6542C28.4643 20.611 27.0494 20.025 25.5742 20.025ZM45.568 20.025C44.8246 20.004 44.0845 20.1322 43.3915 20.4022C42.6985 20.6722 42.0667 21.0784 41.5334 21.5968C41.0001 22.1152 40.5762 22.7352 40.2868 23.4203C39.9973 24.1054 39.8482 24.8416 39.8482 25.5853C39.8482 26.329 39.9973 27.0652 40.2868 27.7502C40.5762 28.4353 41.0001 29.0554 41.5334 29.5738C42.0667 30.0922 42.6985 30.4984 43.3915 30.7684C44.0845 31.0383 44.8246 31.1666 45.568 31.1455C47.0154 31.1046 48.3899 30.5008 49.3992 29.4625C50.4085 28.4243 50.9732 27.0333 50.9732 25.5853C50.9732 24.1372 50.4085 22.7463 49.3992 21.708C48.3899 20.6697 47.0154 20.066 45.568 20.025Z" fill="#333333"/>
</svg>
